<svg version="1.1" viewBox="0.0 0.0 377.9527559055118 377.9527559055118" fill="none" stroke="none" stroke-linecap="square" stroke-miterlimit="10" xmlns:xlink="http://www.w3.org/1999/xlink" xmlns="http://www.w3.org/2000/svg"><clipPath id="p.0"><path d="m0 0l377.95276 0l0 377.95276l-377.95276 0l0 -377.95276z" clip-rule="nonzero"/></clipPath><g clip-path="url(#p.0)"><path fill="#000000" fill-opacity="0.0" d="m0 0l377.95276 0l0 377.95276l-377.95276 0z" fill-rule="evenodd"/><path fill="#ffffff" d="m-0.0016936434 -7.291616E-4l377.9502 0l0 377.95023l-377.9502 0z" fill-rule="evenodd"/><path stroke="#ffffff" stroke-width="1.0" stroke-linejoin="round" stroke-linecap="butt" d="m-0.0016936434 -7.291616E-4l377.9502 0l0 377.95023l-377.9502 0z" fill-rule="evenodd"/><path fill="#eb5958" d="m81.780334 213.22754l77.98387 -141.84814l63.55278 0l-77.98386 141.84814z" fill-rule="evenodd"/><path fill="#6a6a8b" d="m152.96666 213.22754l77.98387 -141.84814l63.552795 0l-77.98387 141.84814z" fill-rule="evenodd"/><path fill="#6797cd" d="m224.98572 213.22754l77.98386 -141.84814l63.552795 0l-77.98386 141.84814z" fill-rule="evenodd"/><path fill="#fec85c" d="m10.427958 213.22754l77.98387 -141.84814l63.552788 0l-77.98387 141.84814z" fill-rule="evenodd"/></g></svg>